<svg width="32" height="32" viewBox="0 0 32 32" fill="none" xmlns="http://www.w3.org/2000/svg">
<path d="M16 32C24.8366 32 32 24.8366 32 16C32 7.16344 24.8366 0 16 0C7.16344 0 0 7.16344 0 16C0 24.8366 7.16344 32 16 32Z" fill="#EAF1FD"/>
<path d="M12.3271 27.1295C12.4948 25.6702 12.9849 20.2466 12.0196 20.1132C11.1761 19.9966 6.78455 29.0809 6.78455 29.0809C6.78455 29.0809 7.94994 29.8342 8.35394 30.0578C8.9837 30.4064 10.1163 30.883 10.1163 30.883L12.3271 27.1295Z" fill="#1E2248"/>
<path d="M19.4305 31.6311L19.6137 20.991L13.5313 21.4139L13.2209 31.7596C13.2209 31.7596 14.5318 32.0194 16.3826 31.9954C18.1164 31.9729 19.4305 31.6311 19.4305 31.6311Z" fill="#3079EC"/>
<path d="M19.3949 8.35712C22.3415 12.0742 21.8596 17.2228 21.0787 18.2185C20.0354 19.5486 14.5311 18.6954 12.2188 19.021C11.7764 19.0833 10.2703 14.2226 12.1075 9.37527C12.995 7.03359 17.6185 6.11632 19.3949 8.35712Z" fill="#111329"/>
<path d="M15.895 22.8347C14.6494 22.5371 13.3632 21.0891 12.8416 20.3801C12.8416 20.3801 13.6072 19.6877 13.9292 19.567C16.038 18.776 16.9247 18.4825 19.5471 19.3465C19.8575 19.4488 20.7193 19.9258 20.7193 19.9258C20.7034 20.0249 17.5207 23.223 15.895 22.8347Z" fill="url(#paint0_linear_5_5965)"/>
<path d="M15.5678 15.5382L18.2574 15.5062C18.331 15.5054 18.3915 15.576 18.3926 15.664L18.4293 18.885C18.4409 19.8609 17.7005 20.4452 16.8842 20.4549C16.0679 20.4646 15.4846 19.7614 15.473 18.7855L15.4364 15.699C15.4354 15.6112 15.4942 15.5391 15.5678 15.5382Z" fill="url(#paint1_linear_5_5965)"/>
<path d="M12.6859 13.4198C12.7118 13.7979 13.0364 14.0835 13.4108 14.0579C13.7851 14.0322 14.0676 13.7048 14.0416 13.3268C14.0157 12.9487 13.6911 12.6631 13.3167 12.6887C12.9423 12.7144 12.6599 13.0418 12.6859 13.4198Z" fill="url(#paint2_linear_5_5965)"/>
<path d="M15.6116 9.07284C17.1353 8.96819 18.4577 10.1533 18.5653 11.7199L18.7428 14.3058C18.8503 15.8723 17.2896 17.2531 15.8469 17.3547C14.248 17.4671 13.3324 16.2512 13.2249 14.6848L13.0474 12.0988C12.9399 10.5321 14.0879 9.17739 15.6116 9.07284Z" fill="#FFD0CE"/>
<path d="M13.5379 8.16087C14.2174 7.55162 16.029 6.96389 17.788 8.28761C19.5881 9.64227 18.9127 12.4604 18.6032 12.2607C17.5795 11.5998 17.6885 10.561 16.7693 10.5875C16.0285 10.6087 14.9629 12.6558 12.5285 13.164C12.3389 13.2036 11.9607 11.8613 12.029 11.2014C12.2254 9.3036 12.982 8.65928 13.5379 8.16087Z" fill="#111329"/>
<path d="M15.6542 12.8234L15.6693 13.0449C15.7011 13.5142 16.0834 13.872 16.5216 13.8424L16.7281 13.8285C17.2801 13.7913 17.6966 13.2798 17.6565 12.6884C17.6397 12.4409 17.438 12.2522 17.2069 12.2677L16.0427 12.3462C15.8117 12.3618 15.6374 12.5758 15.6542 12.8234ZM15.7939 12.8139C15.7827 12.6488 15.899 12.5062 16.053 12.4958L17.2171 12.4173C17.3712 12.4068 17.5056 12.5326 17.5169 12.6977C17.5514 13.2067 17.1931 13.6467 16.7181 13.6787L16.5114 13.6927C16.1504 13.717 15.8352 13.4221 15.809 13.0353L15.7939 12.8139ZM14.3755 12.4585L13.2114 12.537C12.9803 12.5527 12.8059 12.7666 12.8228 13.0143C12.8629 13.6057 13.3448 14.0566 13.8968 14.0194L14.1033 14.0055C14.5415 13.9759 14.872 13.5701 14.8401 13.1007L14.825 12.8793C14.8083 12.6317 14.6066 12.443 14.3755 12.4585ZM14.7005 13.1101C14.7267 13.4969 14.4543 13.8314 14.0933 13.8558L13.8866 13.8697C13.4116 13.9018 12.997 13.5137 12.9625 13.0049C12.9513 12.8398 13.0675 12.6972 13.2215 12.6867L14.3857 12.6082C14.5398 12.5979 14.6742 12.7236 14.6854 12.8887L14.7005 13.1101ZM14.9103 12.8728C15.0932 12.7017 15.3653 12.6807 15.5719 12.8218C15.6014 12.842 15.6102 12.8837 15.5917 12.915C15.5733 12.9462 15.5343 12.9554 15.5048 12.9353C15.3452 12.8263 15.135 12.8425 14.9938 12.9746C14.983 12.9847 14.9699 12.9901 14.9567 12.991C14.9377 12.9923 14.9183 12.9844 14.9049 12.9678C14.8818 12.9398 14.8842 12.8971 14.9103 12.8728Z" fill="#1A1B5C"/>
<path d="M19.3333 12.9696C19.3077 12.5916 18.9834 12.3055 18.609 12.3308C18.2346 12.3562 17.9518 12.6832 17.9774 13.0613C18.0029 13.4393 18.3272 13.7254 18.7016 13.7001C19.076 13.6748 19.3588 13.3477 19.3333 12.9696Z" fill="url(#paint3_linear_5_5965)"/>
<path d="M23.2646 30.2522C23.2287 28.6894 23.2902 21.5359 22.6166 20.8444C21.937 20.1467 18.5984 18.9014 18.5984 18.9014C18.5984 18.9014 19.2967 28.8349 18.0051 31.8688C18.0051 31.8688 19.4518 31.669 20.6848 31.303C22.2161 30.8485 23.2646 30.2522 23.2646 30.2522ZM14.8061 31.9493C13.3628 20.9908 15.3897 18.8215 15.3897 18.8215C15.3897 18.8215 12.684 19.5517 12.1536 20.2466C11.3013 21.3634 10.7626 29.2234 10.5566 31.0495C10.5566 31.0495 11.6916 31.4356 12.3647 31.5848C13.5445 31.8463 14.8061 31.9493 14.8061 31.9493Z" fill="#22254F"/>
<path d="M25.763 28.6763C25.3625 26.5471 23.8105 20.0449 22.5617 20.4549C21.4012 20.836 21.536 29.4394 21.5729 31.0026C21.5729 31.0026 22.8599 30.5103 23.9601 29.8828C24.9143 29.3385 25.763 28.6763 25.763 28.6763Z" fill="#1E2248"/>
<defs>
<linearGradient id="paint0_linear_5_5965" x1="17.7989" y1="18.3345" x2="8.7696" y2="35.1777" gradientUnits="userSpaceOnUse">
<stop stop-color="#FFD0CE"/>
<stop offset="1" stop-color="#F4AAA7"/>
</linearGradient>
<linearGradient id="paint1_linear_5_5965" x1="17.9082" y1="20.131" x2="15.5806" y2="15.5188" gradientUnits="userSpaceOnUse">
<stop stop-color="#FFD0CE"/>
<stop offset="1" stop-color="#F4AAA7"/>
</linearGradient>
<linearGradient id="paint2_linear_5_5965" x1="13.984" y1="13.3246" x2="12.6282" y2="13.4177" gradientUnits="userSpaceOnUse">
<stop stop-color="#FFD0CE"/>
<stop offset="1" stop-color="#F4AAA7"/>
</linearGradient>
<linearGradient id="paint3_linear_5_5965" x1="18.0059" y1="13.1339" x2="19.3619" y2="13.0422" gradientUnits="userSpaceOnUse">
<stop stop-color="#FFD0CE"/>
<stop offset="1" stop-color="#F4AAA7"/>
</linearGradient>
</defs>
</svg>
