<svg width="115" height="60" viewBox="0 0 115 60" fill="none" xmlns="http://www.w3.org/2000/svg">
<path d="M33.2855 24.264C31.9255 24.264 30.6535 24.096 29.4695 23.76C28.2855 23.424 27.2775 22.96 26.4455 22.368L27.5495 19.44C28.0935 19.808 28.6695 20.12 29.2775 20.376C29.8855 20.632 30.5255 20.832 31.1975 20.976C31.8695 21.104 32.5735 21.168 33.3095 21.168C34.4615 21.168 35.2775 20.992 35.7575 20.64C36.2535 20.288 36.5015 19.84 36.5015 19.296C36.5015 18.8 36.3335 18.424 35.9975 18.168C35.6775 17.896 35.0855 17.664 34.2215 17.472L31.3895 16.896C29.8375 16.576 28.6775 16.032 27.9095 15.264C27.1415 14.496 26.7575 13.472 26.7575 12.192C26.7575 11.104 27.0455 10.16 27.6215 9.36C28.1975 8.56 29.0055 7.936 30.0455 7.488C31.1015 7.04 32.3335 6.816 33.7415 6.816C34.9415 6.816 36.0615 6.984 37.1015 7.32C38.1415 7.656 38.9975 8.136 39.6695 8.76L38.5655 11.496C37.9095 10.968 37.1735 10.576 36.3575 10.32C35.5575 10.048 34.6615 9.912 33.6695 9.912C32.6295 9.912 31.8295 10.096 31.2695 10.464C30.7255 10.832 30.4535 11.336 30.4535 11.976C30.4535 12.456 30.6215 12.848 30.9575 13.152C31.2935 13.44 31.8855 13.672 32.7335 13.848L35.5175 14.4C37.1015 14.72 38.2775 15.256 39.0455 16.008C39.8135 16.76 40.1975 17.76 40.1975 19.008C40.1975 20.064 39.9095 20.984 39.3335 21.768C38.7735 22.552 37.9735 23.168 36.9335 23.616C35.9095 24.048 34.6935 24.264 33.2855 24.264ZM46.5228 24V10.128H41.1468V7.08H55.6428V10.128H50.2668V24H46.5228ZM79.9961 24V15.96L80.7641 18.096L73.3481 7.08H77.6681L82.3241 14.328H81.5561L86.2121 7.08H90.3881L82.9961 18.096L83.7401 15.96V24H79.9961ZM2.00534 54V37.08H5.74934V54H2.00534ZM9.17722 54V37.08H11.9612L21.1532 48.768H20.5052V37.08H23.9852V54H21.2012L12.0332 42.312H12.6572V54H9.17722ZM33.5316 54.264C32.1716 54.264 30.8996 54.096 29.7156 53.76C28.5316 53.424 27.5236 52.96 26.6916 52.368L27.7956 49.44C28.3396 49.808 28.9156 50.12 29.5236 50.376C30.1316 50.632 30.7716 50.832 31.4436 50.976C32.1156 51.104 32.8196 51.168 33.5556 51.168C34.7076 51.168 35.5236 50.992 36.0036 50.64C36.4996 50.288 36.7476 49.84 36.7476 49.296C36.7476 48.8 36.5796 48.424 36.2436 48.168C35.9236 47.896 35.3316 47.664 34.4676 47.472L31.6356 46.896C30.0836 46.576 28.9236 46.032 28.1556 45.264C27.3876 44.496 27.0036 43.472 27.0036 42.192C27.0036 41.104 27.2916 40.16 27.8676 39.36C28.4436 38.56 29.2516 37.936 30.2916 37.488C31.3476 37.04 32.5796 36.816 33.9876 36.816C35.1876 36.816 36.3076 36.984 37.3476 37.32C38.3876 37.656 39.2436 38.136 39.9156 38.76L38.8116 41.496C38.1556 40.968 37.4196 40.576 36.6036 40.32C35.8036 40.048 34.9076 39.912 33.9156 39.912C32.8756 39.912 32.0756 40.096 31.5156 40.464C30.9716 40.832 30.6996 41.336 30.6996 41.976C30.6996 42.456 30.8676 42.848 31.2036 43.152C31.5396 43.44 32.1316 43.672 32.9796 43.848L35.7636 44.4C37.3476 44.72 38.5236 45.256 39.2916 46.008C40.0596 46.76 40.4436 47.76 40.4436 49.008C40.4436 50.064 40.1556 50.984 39.5796 51.768C39.0196 52.552 38.2196 53.168 37.1796 53.616C36.1556 54.048 34.9396 54.264 33.5316 54.264ZM43.2085 54V37.08H51.1045C53.0085 37.08 54.4485 37.544 55.4245 38.472C56.4165 39.384 56.9125 40.64 56.9125 42.24C56.9125 43.824 56.4165 45.088 55.4245 46.032C54.4485 46.96 53.0085 47.424 51.1045 47.424H46.9525V54H43.2085ZM46.9525 44.52H50.6245C51.5205 44.52 52.1845 44.32 52.6165 43.92C53.0645 43.52 53.2885 42.96 53.2885 42.24C53.2885 41.52 53.0645 40.968 52.6165 40.584C52.1845 40.184 51.5205 39.984 50.6245 39.984H46.9525V44.52ZM59.4038 54V37.08H63.1478V54H59.4038ZM66.5757 54V37.08H74.2557C76.1597 37.08 77.6317 37.536 78.6717 38.448C79.7117 39.344 80.2317 40.6 80.2317 42.216C80.2317 43.272 79.9917 44.184 79.5117 44.952C79.0477 45.704 78.3757 46.288 77.4957 46.704C76.6317 47.104 75.5917 47.304 74.3757 47.304L74.6637 46.776H75.6477C76.3357 46.776 76.9437 46.96 77.4717 47.328C78.0157 47.696 78.4637 48.232 78.8157 48.936L81.3357 54H77.2077L74.5917 48.552C74.3997 48.088 74.0957 47.784 73.6797 47.64C73.2797 47.48 72.8157 47.4 72.2877 47.4H70.3197V54H66.5757ZM70.3197 44.712H73.6077C74.5837 44.712 75.3277 44.512 75.8397 44.112C76.3517 43.712 76.6077 43.12 76.6077 42.336C76.6077 41.552 76.3517 40.968 75.8397 40.584C75.3277 40.184 74.5837 39.984 73.6077 39.984H70.3197V44.712ZM83.5678 54V37.08H95.3278V39.984H87.1438V43.944H94.7518V46.872H87.1438V51.096H95.3278V54H83.5678ZM97.935 54V37.08H104.391C106.359 37.08 108.023 37.416 109.383 38.088C110.743 38.76 111.767 39.728 112.455 40.992C113.159 42.24 113.511 43.752 113.511 45.528C113.511 47.288 113.159 48.8 112.455 50.064C111.767 51.328 110.743 52.304 109.383 52.992C108.023 53.664 106.359 54 104.391 54H97.935ZM101.679 50.928H104.175C106.063 50.928 107.463 50.488 108.375 49.608C109.303 48.712 109.767 47.352 109.767 45.528C109.767 43.688 109.303 42.328 108.375 41.448C107.463 40.568 106.063 40.128 104.175 40.128H101.679V50.928Z" fill="#031025"/>
<path d="M56.2061 23.9876H71.7945L69.846 19.7407H58.1546L56.2061 23.9876Z" fill="#031025"/>
<path d="M63.8207 7.35799L60.1024 14.7983L59.1282 16.7478L58.641 17.7226L58.3975 18.21H69.6017L69.3581 17.7226L68.871 16.7478L67.8967 14.7983L64.1785 7.35799C64.1048 7.21053 63.8944 7.21053 63.8207 7.35799Z" fill="#3079EC"/>
</svg>
