<svg width="14" height="14" viewBox="0 0 14 14" fill="none" xmlns="http://www.w3.org/2000/svg">
<path d="M10.6667 5.88C10.4899 5.88 10.3203 5.95024 10.1953 6.07526C10.0702 6.20029 10 6.36986 10 6.54667V11.3333C10 11.5101 9.92976 11.6797 9.80474 11.8047C9.67971 11.9298 9.51014 12 9.33333 12H2C1.82319 12 1.65362 11.9298 1.5286 11.8047C1.40357 11.6797 1.33333 11.5101 1.33333 11.3333V4C1.33333 3.82319 1.40357 3.65362 1.5286 3.5286C1.65362 3.40357 1.82319 3.33333 2 3.33333H6.78667C6.96348 3.33333 7.13305 3.2631 7.25807 3.13807C7.3831 3.01305 7.45333 2.84348 7.45333 2.66667C7.45333 2.48986 7.3831 2.32029 7.25807 2.19526C7.13305 2.07024 6.96348 2 6.78667 2H2C1.46957 2 0.960859 2.21071 0.585787 2.58579C0.210714 2.96086 0 3.46957 0 4V11.3333C0 11.8638 0.210714 12.3725 0.585787 12.7475C0.960859 13.1226 1.46957 13.3333 2 13.3333H9.33333C9.86377 13.3333 10.3725 13.1226 10.7475 12.7475C11.1226 12.3725 11.3333 11.8638 11.3333 11.3333V6.54667C11.3333 6.36986 11.2631 6.20029 11.1381 6.07526C11.013 5.95024 10.8435 5.88 10.6667 5.88ZM13.28 0.413333C13.2124 0.250434 13.0829 0.120983 12.92 0.0533333C12.8399 0.0191726 12.7538 0.00105333 12.6667 0H8.66667C8.48986 0 8.32029 0.0702379 8.19526 0.195262C8.07024 0.320286 8 0.489856 8 0.666667C8 0.843478 8.07024 1.01305 8.19526 1.13807C8.32029 1.2631 8.48986 1.33333 8.66667 1.33333H11.06L4.19333 8.19333C4.13085 8.25531 4.08125 8.32904 4.04741 8.41028C4.01356 8.49152 3.99613 8.57866 3.99613 8.66667C3.99613 8.75467 4.01356 8.84181 4.04741 8.92305C4.08125 9.00429 4.13085 9.07803 4.19333 9.14C4.25531 9.20249 4.32904 9.25208 4.41028 9.28593C4.49152 9.31977 4.57866 9.3372 4.66667 9.3372C4.75467 9.3372 4.84181 9.31977 4.92305 9.28593C5.00429 9.25208 5.07802 9.20249 5.14 9.14L12 2.27333V4.66667C12 4.84348 12.0702 5.01305 12.1953 5.13807C12.3203 5.2631 12.4899 5.33333 12.6667 5.33333C12.8435 5.33333 13.013 5.2631 13.1381 5.13807C13.2631 5.01305 13.3333 4.84348 13.3333 4.66667V0.666667C13.3323 0.579549 13.3142 0.493481 13.28 0.413333Z" fill="white"/>
<path d="M13.0953 0.490039L13.0953 0.490042L13.096 0.491751C13.1198 0.547522 13.1325 0.607389 13.1333 0.668005V4.66667C13.1333 4.79043 13.0842 4.90913 12.9966 4.99665C12.9091 5.08417 12.7904 5.13333 12.6667 5.13333C12.5429 5.13333 12.4242 5.08417 12.3367 4.99665C12.2492 4.90913 12.2 4.79043 12.2 4.66667V2.27333V1.79016L11.8585 2.13198L4.99851 8.99865L4.998 8.99916C4.95462 9.0429 4.903 9.07762 4.84614 9.10131C4.78927 9.125 4.72827 9.1372 4.66667 9.1372C4.60506 9.1372 4.54407 9.125 4.4872 9.10131C4.43033 9.07762 4.37872 9.0429 4.33534 8.99916L4.33417 8.998C4.29043 8.95462 4.25572 8.903 4.23202 8.84614C4.20833 8.78927 4.19613 8.72827 4.19613 8.66667C4.19613 8.60506 4.20833 8.54407 4.23202 8.4872C4.25572 8.43033 4.29043 8.37872 4.33417 8.33533L4.33469 8.33482L11.2014 1.47482L11.5432 1.13333H11.06H8.66667C8.5429 1.13333 8.4242 1.08417 8.33668 0.99665C8.24917 0.909133 8.2 0.790435 8.2 0.666667C8.2 0.542899 8.24917 0.4242 8.33668 0.336683C8.4242 0.249167 8.5429 0.2 8.66667 0.2H12.6654C12.726 0.200876 12.7858 0.21355 12.8416 0.237319L12.8416 0.237327L12.8433 0.238039C12.9573 0.285394 13.0479 0.37601 13.0953 0.490039ZM10.3367 6.21668C10.4242 6.12917 10.5429 6.08 10.6667 6.08C10.7904 6.08 10.9091 6.12917 10.9967 6.21668C11.0842 6.3042 11.1333 6.4229 11.1333 6.54667V11.3333C11.1333 11.8107 10.9437 12.2686 10.6061 12.6061C10.2686 12.9437 9.81072 13.1333 9.33333 13.1333H2C1.52261 13.1333 1.06477 12.9437 0.727208 12.6061C0.389642 12.2686 0.2 11.8107 0.2 11.3333V4C0.2 3.52261 0.389642 3.06477 0.727208 2.72721C1.06477 2.38964 1.52261 2.2 2 2.2H6.78667C6.91043 2.2 7.02913 2.24917 7.11665 2.33668C7.20417 2.4242 7.25333 2.5429 7.25333 2.66667C7.25333 2.79043 7.20417 2.90913 7.11665 2.99665C7.02913 3.08417 6.91043 3.13333 6.78667 3.13333H2C1.77015 3.13333 1.54971 3.22464 1.38717 3.38717C1.22464 3.54971 1.13333 3.77015 1.13333 4V11.3333C1.13333 11.5632 1.22464 11.7836 1.38717 11.9462C1.54971 12.1087 1.77015 12.2 2 12.2H9.33333C9.56319 12.2 9.78363 12.1087 9.94616 11.9462C10.1087 11.7836 10.2 11.5632 10.2 11.3333V6.54667C10.2 6.4229 10.2492 6.3042 10.3367 6.21668Z" stroke="white" stroke-opacity="0.2" stroke-width="0.4"/>
</svg>
