<svg width="18" height="18" viewBox="0 0 18 18" fill="none" xmlns="http://www.w3.org/2000/svg">
<path d="M7.82153 7.66077H6.32153C6.11444 7.66077 5.94653 7.82867 5.94653 8.03577C5.94653 8.24286 6.11444 8.41077 6.32153 8.41077H7.82153C8.02863 8.41077 8.19653 8.24286 8.19653 8.03577C8.19653 7.82867 8.02863 7.66077 7.82153 7.66077ZM13.4465 4.28577H8.57153V2.03577H9.69653C9.90363 2.03577 10.0715 1.86786 10.0715 1.66077C10.0715 1.45367 9.90363 1.28577 9.69653 1.28577H8.19612C7.98912 1.2859 7.8214 1.45377 7.82153 1.66077V4.28577H5.19653C3.74753 4.28751 2.57327 5.46176 2.57153 6.91077V12.1612C2.57167 12.3682 2.73953 12.5359 2.94653 12.5358H7.82153V15.9112C7.82167 16.1182 7.98953 16.2859 8.19653 16.2858H8.19699C8.40395 16.2856 8.57167 16.1178 8.57153 15.9108V12.5358H15.697C15.9039 12.5356 16.0717 12.3678 16.0715 12.1608V6.91077C16.0715 5.46103 14.8963 4.28577 13.4465 4.28577ZM10.8215 11.7858H3.32153V6.91077C3.32249 5.87563 4.16139 5.03673 5.19653 5.03577H11.6132C11.1259 5.51234 10.8215 6.17523 10.8215 6.91077V11.7858ZM15.3215 11.7858H11.5715V6.91077C11.5715 5.87521 12.411 5.03577 13.4465 5.03577C14.4817 5.03673 15.3206 5.87563 15.3215 6.91077V11.7858Z" fill="#888D95" stroke="#888D95" stroke-width="0.242857"/>
</svg>
