<svg width="22" height="16" viewBox="0 0 22 16" fill="none" xmlns="http://www.w3.org/2000/svg">
<path d="M21.0548 8.70711C21.4453 8.31658 21.4453 7.68342 21.0548 7.29289L14.6908 0.928931C14.3003 0.538407 13.6671 0.538407 13.2766 0.928931C12.8861 1.31946 12.8861 1.95262 13.2766 2.34315L18.9334 8L13.2766 13.6569C12.8861 14.0474 12.8861 14.6805 13.2766 15.0711C13.6671 15.4616 14.3003 15.4616 14.6908 15.0711L21.0548 8.70711ZM5.34766 9L20.3477 9L20.3477 7L5.34766 7L5.34766 9Z" fill="#3079EC"/>
<path d="M1 7C0.447715 7 0 7.44772 0 8C0 8.55228 0.447715 9 1 9L1 7ZM1 9H3.78261L3.78261 7L1 7L1 9Z" fill="#3079EC"/>
</svg>
