<svg width="28" height="28" viewBox="0 0 28 28" fill="none" xmlns="http://www.w3.org/2000/svg">
<path d="M19.0168 10.5L8.16683 4.08333C7.00016 3.38333 5.4835 3.38333 4.31683 4.08333C3.0335 4.66667 2.3335 6.06667 2.3335 7.46667V20.5333C2.3335 21.9333 3.0335 23.3333 4.31683 24.0333C5.4835 24.7333 7.00016 24.7333 8.16683 24.0333L19.0168 17.5C20.8835 16.3333 21.4668 13.8833 20.3002 11.9C20.0668 11.3167 19.6002 10.85 19.0168 10.5ZM24.5002 3.5C23.8002 3.5 23.3335 3.96667 23.3335 4.66667V23.3333C23.3335 24.0333 23.8002 24.5 24.5002 24.5C25.2002 24.5 25.6668 24.0333 25.6668 23.3333V4.66667C25.6668 3.96667 25.2002 3.5 24.5002 3.5Z" fill="#031025"/>
</svg>
