<svg width="28" height="28" viewBox="0 0 28 28" fill="none" xmlns="http://www.w3.org/2000/svg">
<path d="M8.98341 10.5L19.8334 4.08333C21.0001 3.38333 22.5167 3.38333 23.6834 4.08333C24.9667 4.66667 25.6667 6.06667 25.6667 7.46667V20.5333C25.6667 21.9333 24.9667 23.3333 23.6834 24.0333C22.5167 24.7333 21.0001 24.7333 19.8334 24.0333L8.98341 17.5C7.11675 16.3333 6.53341 13.8833 7.70008 11.9C7.93341 11.3167 8.40008 10.85 8.98341 10.5ZM3.50008 3.5C4.20008 3.5 4.66675 3.96667 4.66675 4.66667V23.3333C4.66675 24.0333 4.20008 24.5 3.50008 24.5C2.80008 24.5 2.33341 24.0333 2.33341 23.3333V4.66667C2.33341 3.96667 2.80008 3.5 3.50008 3.5Z" fill="#031025"/>
</svg>
